<?xml version="1.0" encoding="utf-8"?>
<!-- Generator: Adobe Illustrator 25.0.1, SVG Export Plug-In . SVG Version: 6.00 Build 0)  -->
<svg version="1.1" id="Layer_1" xmlns="http://www.w3.org/2000/svg" xmlns:xlink="http://www.w3.org/1999/xlink" x="0px" y="0px"
	 viewBox="0 0 58 58" style="enable-background:new 0 0 58 58;" xml:space="preserve">
<style type="text/css">
	.st0{fill:#FFFFFF;}
</style>
<g id="Layer_2_2_">
	<g id="Layer_1-2_1_">
		<path class="st0" d="M23.4,27c3.2-1.6,4.9-4.1,4.9-8c0-7.6-5.3-9.5-11.4-9.5H0.1v38.4h17.2c6.5,0,12.5-3.3,12.5-11.1
			C29.9,31.9,27.8,28.3,23.4,27z M7.9,16h7.3c2.8,0,5.4,0.9,5.4,4.4c0,3.3-2,4.6-4.8,4.6H7.9V16z M16.3,41.3H7.9V30.7h8.5
			c3.4,0,5.6,1.5,5.6,5.5C22.1,40.1,19.5,41.3,16.3,41.3z M52.2,15.2H37.8v-3.8h14.4V15.2z M57.9,34.3c0-8.2-4.5-15.1-12.5-15.1
			c-7.8,0-13.2,6.4-13.2,14.7c0,8.7,5,14.6,13.2,14.6c6.1,0,10.1-3,12-9.4h-6.2c-0.7,2.4-3.4,3.6-5.6,3.6c-4.1,0-6.3-2.6-6.3-7.1
			h18.6C57.9,35.3,57.9,34.8,57.9,34.3L57.9,34.3z M39.3,31c0-3.3,2.5-6,5.5-5.9c0.1,0,0.2,0,0.3,0c3.6,0,5.3,2.3,5.6,5.9L39.3,31z"
			/>
	</g>
</g>
</svg>
