<svg id="Layer_1" data-name="Layer 1" xmlns="http://www.w3.org/2000/svg" viewBox="0 0 80 80"><defs><style>.cls-1{fill:#fff;}</style></defs><path class="cls-1" d="M39.91,62.3034a2.6431,2.6431,0,0,0-.2346-.312Q19.9329,42.3683.1861,22.75A2.3107,2.3107,0,0,0,0,22.5984v-.0817a1.1386,1.1386,0,0,0,.161-.1133q2.2556-2.2386,4.5066-4.4817a1.2864,1.2864,0,0,0,.1477-.2251h.1632a2.7831,2.7831,0,0,0,.2376.3117Q22.4694,35.1589,39.7266,52.3056c.076.0756.1573.146.2617.2425.1052-.0951.2065-.1792.2995-.2716q17.228-17.1183,34.4531-34.2393a3.2237,3.2237,0,0,0,.2636-.3406h.1632a3.7724,3.7724,0,0,0,.2662.34c1.4829,1.5171,2.9688,3.0314,4.5661,4.6606a1.7158,1.7158,0,0,0-.3817.2375Q60.0027,42.4159,40.3964,61.9061a4.6971,4.6971,0,0,0-.3233.3973Z"/></svg>