<?xml version="1.0" encoding="utf-8"?>
<!-- Generator: Adobe Illustrator 25.0.1, SVG Export Plug-In . SVG Version: 6.00 Build 0)  -->
<svg version="1.1" id="Layer_1" xmlns="http://www.w3.org/2000/svg" xmlns:xlink="http://www.w3.org/1999/xlink" x="0px" y="0px"
	 viewBox="0 0 80 80" style="enable-background:new 0 0 80 80;" xml:space="preserve">
<style type="text/css">
	.st0{fill:#FFFFFF;}
</style>
<path class="st0" d="M39.9,62.3c-0.1-0.1-0.1-0.2-0.2-0.3C26.5,48.9,13.4,35.8,0.2,22.8c-0.1-0.1-0.1-0.1-0.2-0.2v-0.1
	c0.1,0,0.1-0.1,0.2-0.1c1.5-1.5,3-3,4.5-4.5c0.1-0.1,0.1-0.1,0.1-0.2H5c0.1,0.1,0.2,0.2,0.2,0.3c11.5,11.4,23,22.9,34.5,34.3
	c0.1,0.1,0.2,0.1,0.3,0.2c0.1-0.1,0.2-0.2,0.3-0.3c11.5-11.4,23-22.8,34.5-34.2c0.1-0.1,0.2-0.2,0.3-0.3h0.2
	c0.1,0.1,0.2,0.2,0.3,0.3c1.5,1.5,3,3,4.6,4.7c-0.1,0.1-0.3,0.1-0.4,0.2c-13.1,13-26.2,26-39.2,39c-0.1,0.1-0.2,0.3-0.3,0.4
	L39.9,62.3z"/>
</svg>
