<?xml version="1.0" encoding="utf-8"?>
<!-- Generator: Adobe Illustrator 25.0.1, SVG Export Plug-In . SVG Version: 6.00 Build 0)  -->
<svg version="1.1" id="Layer_1" xmlns="http://www.w3.org/2000/svg" xmlns:xlink="http://www.w3.org/1999/xlink" x="0px" y="0px"
	 viewBox="0 0 48 48" style="enable-background:new 0 0 48 48;" xml:space="preserve">
<style type="text/css">
	.st0{fill:#FFFFFF;}
</style>
<g id="Layer_2_1_">
	<g id="Layer_1-2">
		<path class="st0" d="M24,12.8c-6.2,0-11.2,5-11.2,11.2s5,11.2,11.2,11.2s11.2-5,11.2-11.2l0,0l0,0C35.2,17.8,30.2,12.8,24,12.8
			C24,12.8,24,12.8,24,12.8L24,12.8z M24,31.3c-4,0-7.3-3.3-7.3-7.3s3.3-7.3,7.3-7.3s7.3,3.3,7.3,7.3v0l0,0C31.3,28,28,31.3,24,31.3
			z M38.3,12.4c0,1.5-1.2,2.6-2.6,2.6c-1.5,0-2.6-1.2-2.6-2.6s1.2-2.6,2.6-2.6l0,0C37.1,9.7,38.3,10.9,38.3,12.4z M45.7,15
			c-0.2-3.5-0.9-6.6-3.5-9.2S36.6,2.4,33,2.2c-3.6-0.2-14.4-0.2-18,0c-3.5,0.3-6.6,1-9.2,3.5S2.4,11.4,2.3,15
			c-0.2,3.6-0.2,14.4,0,18c0.2,3.5,1,6.6,3.5,9.2c2.5,2.5,5.6,3.4,9.2,3.5c3.6,0.2,14.4,0.2,18,0c3.5-0.2,6.6-1,9.2-3.5
			c2.5-2.5,3.4-5.6,3.5-9.2C45.9,29.4,45.9,18.6,45.7,15L45.7,15z M41,36.8c-0.8,1.9-2.3,3.4-4.2,4.2c-2.9,1.2-9.7,0.9-12.8,0.9
			S14,42.2,11.2,41c-1.9-0.8-3.4-2.3-4.2-4.2C5.8,34,6.1,27.2,6.1,24S5.8,14,7,11.2C7.8,9.3,9.3,7.7,11.2,7C14,5.8,20.8,6.1,24,6.1
			S34,5.8,36.8,7c1.9,0.8,3.4,2.3,4.2,4.2c1.2,2.9,0.9,9.7,0.9,12.8S42.2,34,41,36.8L41,36.8z"/>
	</g>
</g>
</svg>
