<?xml version="1.0" encoding="utf-8"?>
<!-- Generator: Adobe Illustrator 25.0.1, SVG Export Plug-In . SVG Version: 6.00 Build 0)  -->
<svg version="1.1" id="Layer_1" xmlns="http://www.w3.org/2000/svg" xmlns:xlink="http://www.w3.org/1999/xlink" x="0px" y="0px"
	 viewBox="0 0 48 48" style="enable-background:new 0 0 48 48;" xml:space="preserve">
<style type="text/css">
	.st0{fill:#FFFFFF;}
</style>
<g id="Layer_2_1_">
	<g id="Layer_1-2">
		<path class="st0" d="M13,40.9H4.7V14.4H13V40.9z M8.9,10.7c-2.6,0-4.8-2.2-4.8-4.8c0-2.7,2.2-4.8,4.8-4.8s4.8,2.2,4.8,4.8
			C13.6,8.5,11.5,10.6,8.9,10.7z M43.9,40.9h-8.2V28c0-3.1-0.1-7.1-4.3-7.1c-4.3,0-5,3.3-5,6.8v13.2h-8.2V14.4h7.9V18h0.1
			c1.6-2.8,4.6-4.4,7.8-4.3c8.4,0,9.9,5.5,9.9,12.6L43.9,40.9z"/>
	</g>
</g>
</svg>
