<svg xmlns="http://www.w3.org/2000/svg" viewBox="0 0 119 120"><defs><style>.cls-1{fill:#3d3d3d;}.cls-2{fill:#35bdaf;}</style></defs><g id="Layer_2" data-name="Layer 2"><g id="logo"><path d="M44.0167,62.8h8.981l3.97,33.47h.13L72.1312,62.8h8.07L85.668,96.27h.13L99.53,62.8h8.33l-19.8494,46.464h-7.81L74.409,73.8905h-.13L58.7247,109.2636H51.1755Z"/><polygon class="cls-1" points="83.564 83.391 82.929 79.504 77.992 79.504 77.992 85.075 83.564 85.075 83.564 83.391"/><polygon class="cls-1" points="81.109 68.361 77.992 68.361 77.992 73.932 82.019 73.932 81.109 68.361"/><polygon class="cls-1" points="84.749 90.647 83.839 85.075 83.564 85.075 83.564 90.647 84.749 90.647"/><rect class="cls-1" x="72.4208" y="62.798" width="5.5715" height="5.563"/><polygon class="cls-1" points="67.129 73.932 72.421 73.932 72.421 68.361 69.631 68.361 67.129 73.932"/><polygon class="cls-1" points="94.707 74.552 94.707 79.504 100.278 79.504 100.278 73.932 94.961 73.932 94.707 74.552"/><polygon class="cls-1" points="90.389 85.075 94.707 85.075 94.707 79.504 92.675 79.504 90.389 85.075"/><polygon class="cls-1" points="85.797 96.268 85.667 96.268 85.659 96.218 83.564 96.218 83.564 101.79 89.135 101.79 89.135 96.218 85.817 96.218 85.797 96.268"/><polygon class="cls-1" points="77.992 90.647 77.992 95.778 78.064 96.218 83.564 96.218 83.564 90.647 77.992 90.647"/><polygon class="cls-1" points="88.103 90.647 89.135 90.647 89.135 88.132 88.103 90.647"/><polygon class="cls-1" points="95.962 90.647 98.342 85.075 94.707 85.075 94.707 90.647 95.962 90.647"/><polygon class="cls-1" points="100.722 79.504 100.278 79.504 100.278 80.544 100.722 79.504"/><polygon class="cls-1" points="103.103 73.932 105.483 68.361 100.278 68.361 100.278 73.932 103.103 73.932"/><polygon class="cls-1" points="105.849 67.503 107.859 62.798 105.849 62.798 105.849 67.503"/><polygon class="cls-1" points="91.202 101.79 89.135 101.79 89.135 106.628 91.202 101.79"/><polygon class="cls-1" points="74.259 73.932 72.421 73.932 72.421 78.112 74.259 73.932"/><polygon class="cls-1" points="74.415 73.932 75.327 79.504 77.992 79.504 77.992 73.932 74.415 73.932"/><polygon class="cls-1" points="76.24 85.075 77.152 90.647 77.992 90.647 77.992 85.075 76.24 85.075"/><polygon class="cls-1" points="79.889 107.361 83.564 107.361 83.564 101.79 78.977 101.79 79.889 107.361"/><polygon class="cls-1" points="88.01 109.262 88.822 107.361 83.564 107.361 83.564 109.262 88.01 109.262"/><polygon class="cls-1" points="89.135 96.218 93.582 96.218 94.707 93.586 94.707 90.647 89.135 90.647 89.135 96.218"/><polygon class="cls-1" points="48.306 90.647 49.165 96.218 50.135 96.218 50.135 90.647 48.306 90.647"/><polygon class="cls-1" points="59.56 107.361 61.278 103.453 61.278 101.79 55.707 101.79 55.707 107.361 59.56 107.361"/><polygon class="cls-1" points="55.707 90.647 55.707 85.645 55.639 85.075 50.135 85.075 50.135 90.647 55.707 90.647"/><polygon class="cls-1" points="51.174 109.262 55.707 109.262 55.707 107.361 50.882 107.361 51.174 109.262"/><polygon class="cls-1" points="50.135 102.516 50.135 101.79 50.023 101.79 50.135 102.516"/><rect class="cls-1" x="50.1351" y="96.2182" width="5.5715" height="5.5714"/><polygon class="cls-1" points="47.448 85.075 50.135 85.075 50.135 79.504 46.59 79.504 47.448 85.075"/><polygon class="cls-1" points="100.278 68.361 100.278 62.798 99.529 62.798 97.247 68.361 100.278 68.361"/><polygon class="cls-1" points="50.135 68.361 53.656 68.361 52.997 62.798 50.135 62.798 50.135 68.361"/><polygon class="cls-1" points="45.731 73.932 50.135 73.932 50.135 68.361 44.873 68.361 45.731 73.932"/><polygon class="cls-1" points="44.564 62.798 44.016 62.798 44.564 66.355 44.564 62.798"/><polygon class="cls-1" points="56.961 96.218 56.3 90.647 55.707 90.647 55.707 96.218 56.961 96.218"/><polygon class="cls-1" points="64.626 79.504 66.849 79.504 66.849 74.555 64.626 79.504"/><polygon class="cls-1" points="59.621 90.647 57.119 96.218 61.278 96.218 61.278 90.647 59.621 90.647"/><polygon class="cls-1" points="54.978 79.504 54.317 73.932 50.135 73.932 50.135 79.504 54.978 79.504"/><polygon class="cls-1" points="66.909 90.647 66.849 90.647 66.849 90.783 66.909 90.647"/><polygon class="cls-1" points="71.809 79.504 66.849 79.504 66.849 85.075 69.359 85.075 71.809 79.504"/><polygon class="cls-1" points="64.459 96.218 61.278 96.218 61.278 101.79 62.009 101.79 64.459 96.218"/><polygon class="cls-1" points="66.849 85.075 62.124 85.075 61.278 86.959 61.278 90.647 66.849 90.647 66.849 85.075"/><path d="M18.3094,10.723H38.2982a22.6116,22.6116,0,0,1,5.6127.6937,12.8572,12.8572,0,0,1,4.7437,2.264,9.6419,9.6419,0,0,1,3.0418,4.0532,11.4293,11.4293,0,0,1,.5068,5.9886,12.0337,12.0337,0,0,1-3.4763,7.23,16.6981,16.6981,0,0,1-7.025,4.09v.1461a11.4864,11.4864,0,0,1,4.273,1.351,10.32,10.32,0,0,1,3.15,2.7022A9.8341,9.8341,0,0,1,50.9,43.0393a12.3686,12.3686,0,0,1,.1449,4.6374,15.1826,15.1826,0,0,1-2.6435,7.0476,16.3084,16.3084,0,0,1-5.0333,4.528,21.6055,21.6055,0,0,1-6.5544,2.4465,35.989,35.989,0,0,1-7.2059.73H11.14Zm3.0418,43.8188h8.4009a35.2562,35.2562,0,0,0,3.766-.2191A11.9645,11.9645,0,0,0,37.2842,53.3,9.0111,9.0111,0,0,0,40.326,51a7.6613,7.6613,0,0,0,1.6656-4.0532q.579-4.089-1.8467-5.6964-2.4273-1.6056-8.0027-1.6067H23.379ZM24.5379,31.756h8.3286a12.1585,12.1585,0,0,0,7.0973-1.7893,6.5632,6.5632,0,0,0,2.8969-4.71q.5059-3.3584-1.63-5.0027Q39.094,18.61,33.88,18.61H26.3484Z"/><path class="cls-1" d="M49.1282,39.255a10.0831,10.0831,0,0,0-1.5016-1.5589v2.4621h2.114A9.3926,9.3926,0,0,0,49.1282,39.255Z"/><path class="cls-1" d="M50.3143,29.0153a12.5647,12.5647,0,0,0,1.8919-5.2794c.0146-.101.0146-.1922.0273-.292H47.6266v5.5714Z"/><path class="cls-1" d="M50.1793,51.3011a18.1233,18.1233,0,0,0,.8682-3.611,13.8359,13.8359,0,0,0,.1377-1.9605H47.6266v5.5715Z"/><path class="cls-1" d="M51.6994,17.7473a9.6419,9.6419,0,0,0-3.0418-4.0532,11.8835,11.8835,0,0,0-1.031-.712v4.89h4.1122C51.7232,17.8324,51.7156,17.787,51.6994,17.7473Z"/><path class="cls-1" d="M43.9139,11.43c-.6117-.1561-1.2331-.2761-1.8587-.38v1.2506h4.3005A13.9017,13.9017,0,0,0,43.9139,11.43Z"/><path class="cls-1" d="M42.0934,45.73h5.5332V40.1582H42.0552v4.5337A7.9551,7.9551,0,0,1,42.0934,45.73Z"/><path class="cls-1" d="M42.0552,56.8725h4.4623q.58-.56,1.1091-1.18V51.3011H42.0552Z"/><rect class="cls-1" x="25.3409" y="34.5868" width="5.5714" height="5.0699"/><path class="cls-1" d="M41.9946,46.96A7.6613,7.6613,0,0,1,40.329,51.013c-.0888.102-.1855.1909-.2772.2881h2.0034v-4.95C42.0373,46.5519,42.0245,46.7488,41.9946,46.96Z"/><path class="cls-1" d="M36.4838,39.9833q.4531.078.869.1749h4.7024V35.26c-.1181-.0175-.23-.0437-.35-.0584v-.1461c.1213-.0365.2306-.0885.35-.1271v-.3419H36.4838Z"/><polygon class="cls-1" points="12.688 51.301 11.915 56.872 14.198 56.872 14.198 51.301 12.688 51.301"/><polygon class="cls-1" points="15.005 34.587 14.233 40.158 19.769 40.158 19.769 34.587 15.005 34.587"/><polygon class="cls-1" points="13.46 45.73 14.198 45.73 14.198 40.408 13.46 45.73"/><rect class="cls-1" x="14.1981" y="56.8725" width="5.5714" height="5.57"/><polygon class="cls-1" points="16.55 23.444 15.778 29.015 19.769 29.015 19.769 23.444 16.55 23.444"/><rect class="cls-1" x="30.9124" y="10.7364" width="5.5714" height="1.5647"/><rect class="cls-1" x="19.7695" y="10.7364" width="5.5715" height="1.5647"/><polygon class="cls-1" points="18.095 12.301 17.323 17.872 19.769 17.872 19.769 12.301 18.095 12.301"/><path class="cls-1" d="M25.3409,62.4425h4.27c.4344,0,.8681-.0171,1.3019-.0329V56.8725H25.3409Z"/><polygon class="cls-1" points="25.341 31.769 24.541 31.769 24.92 29.015 19.769 29.015 19.769 34.587 25.341 34.587 25.341 31.769"/><polygon class="cls-1" points="23.314 40.158 19.769 40.158 19.769 45.73 22.555 45.73 23.314 40.158"/><rect class="cls-1" x="14.1981" y="45.7296" width="5.5714" height="5.5714"/><polygon class="cls-1" points="25.688 23.444 25.341 23.444 25.341 25.961 25.688 23.444"/><path class="cls-1" d="M33.5212,54.3361c-.92.0992-1.7785.1522-2.6088.184v2.3524h5.5714v-3.228A12.2251,12.2251,0,0,1,33.5212,54.3361Z"/><path class="cls-1" d="M42.0552,56.8725H36.4838v4.8989c.1107-.0216.2218-.0366.3325-.0592a22.0128,22.0128,0,0,0,5.2389-1.7586Z"/><polygon class="cls-1" points="21.354 54.555 21.797 51.301 19.769 51.301 19.769 56.872 25.341 56.872 25.341 54.555 21.354 54.555"/><rect class="cls-1" x="19.7695" y="17.8725" width="5.5715" height="5.5715"/><rect class="cls-1" x="36.4838" y="12.3011" width="5.5714" height="5.5714"/><path class="cls-1" d="M42.923,23.4439h4.7036V17.8725H42.0552v3.2256A4.5029,4.5029,0,0,1,42.923,23.4439Z"/><path class="cls-1" d="M41.0977,29.0153h.9575V27.7284A6.4774,6.4774,0,0,1,41.0977,29.0153Z"/><path class="cls-1" d="M32.87,31.7694H30.9124v2.8174h5.5714V31.4162A17.2282,17.2282,0,0,1,32.87,31.7694Z"/><path class="cls-1" d="M42.0552,34.5868h.9422a16.59,16.59,0,0,0,4.6292-2.6634V29.0153H42.0552Z"/><path class="cls-1" d="M30.9124,18.6237h2.9709a25.59,25.59,0,0,1,2.6005.1252v-.8764H30.9124Z"/><rect class="cls-1" x="25.3409" y="12.3011" width="5.5714" height="5.5714"/><polygon class="cls-2" points="117.014 120 0 2.002 1.986 0 119 117.998 117.014 120"/></g></g></svg>