<svg id="Layer_1" data-name="Layer 1" xmlns="http://www.w3.org/2000/svg" viewBox="0 0 119 120"><defs><style>.cls-1{fill:#1e2224;}.cls-2{fill:#35bdaf;}</style></defs><g id="Layer_2" data-name="Layer 2"><g id="logo"><path class="cls-1" d="M14.75,8.27h20a22.6906,22.6906,0,0,1,5.6.73,12.8707,12.8707,0,0,1,4.74,2.26,9.6993,9.6993,0,0,1,3,4.06,11.46,11.46,0,0,1,.5,6,12,12,0,0,1-3.47,7.23,16.8,16.8,0,0,1-7,4.09v.14a11.6411,11.6411,0,0,1,4.27,1.35,10.21,10.21,0,0,1,3.15,2.71,9.7508,9.7508,0,0,1,1.78,3.79,12.3518,12.3518,0,0,1,.14,4.64,15.12,15.12,0,0,1-2.64,7.05,16.4793,16.4793,0,0,1-5,4.53,21.58,21.58,0,0,1-6.56,2.44,35.7561,35.7561,0,0,1-7.2.73H7.58Zm3,43.82h8.4A36.9017,36.9017,0,0,0,30,51.87a12.0018,12.0018,0,0,0,3.76-1,9,9,0,0,0,3.05-2.3,7.66,7.66,0,0,0,1.66-4c.39-2.73-.23-4.62-1.85-5.7s-4.28-1.6-8-1.6h-8.8ZM21,29.3h8.33a12.16,12.16,0,0,0,7.09-1.79,6.55,6.55,0,0,0,2.9-4.71c.34-2.24-.21-3.91-1.63-5s-3.87-1.65-7.35-1.65H22.79Z"/><path class="cls-1" d="M40.5,60.42h10l4.41,37.25h.15L71.79,60.42h9l6.08,37.25H87l15.28-37.25h9.27L89.46,112.13H80.77L74.32,72.76h-.14L56.87,112.13h-8.4Z"/><polygon class="cls-2" points="117.01 120 0 2 1.99 0 119 118 117.01 120"/></g></g></svg>